HIERARCHY
ROOT Hips
{
	OFFSET -3.958830 18.904000 13.208200
	CHANNELS 6 Xposition Yposition Zposition Zrotation Yrotation Xrotation 
	JOINT LHipJoint
	{
		OFFSET 0.000000 0.000000 0.000000
		CHANNELS 3 Zrotation Yrotation Xrotation
		JOINT LeftUpLeg
		{
			OFFSET 1.800000 -1.400000 0.085000
			CHANNELS 3 Zrotation Yrotation Xrotation
			JOINT LeftLeg
			{
				OFFSET 2.215000 -6.000000 0.000000
				CHANNELS 3 Zrotation Yrotation Xrotation
				JOINT LeftFoot
				{
					OFFSET 2.500000 -6.900000 0.000000
					CHANNELS 3 Zrotation Yrotation Xrotation
					JOINT LeftToeBase
					{
						OFFSET 0.200000 -0.500000 1.950000
						CHANNELS 3 Zrotation Yrotation Xrotation
						End Site
						{
							OFFSET 0.000000 0.000000 0.000000
						}
					}
				}
			}
		}
	}
	JOINT RHipJoint
	{
		OFFSET 0.000000 0.000000 0.000000
		CHANNELS 3 Zrotation Yrotation Xrotation
		JOINT RightUpLeg
		{
			OFFSET -1.800000 -1.400000 0.085000
			CHANNELS 3 Zrotation Yrotation Xrotation
			JOINT RightLeg
			{
				OFFSET -2.215000 -6.000000 0.000000
				CHANNELS 3 Zrotation Yrotation Xrotation
				JOINT RightFoot
				{
					OFFSET -2.500000 -6.900000 0.000000
					CHANNELS 3 Zrotation Yrotation Xrotation
					JOINT RightToeBase
					{
						OFFSET -0.200000 -0.500000 1.950000
						CHANNELS 3 Zrotation Yrotation Xrotation
						End Site
						{
							OFFSET 0.000000 0.000000 0.000000
						}
					}
				}
			}
		}
	}
	JOINT LowerBack
	{
		OFFSET 0.000000 0.000000 0.000000
		CHANNELS 3 Zrotation Yrotation Xrotation
		JOINT Spine
		{
			OFFSET -0.087000 1.940000 -0.288900
			CHANNELS 3 Zrotation Yrotation Xrotation
			JOINT Spine1
			{
				OFFSET 0.000000 1.950000 0.060000
				CHANNELS 3 Zrotation Yrotation Xrotation
				JOINT Neck
				{
					OFFSET 0.000000 0.000000 0.000000
					CHANNELS 3 Zrotation Yrotation Xrotation
					JOINT Neck1
					{
						OFFSET 0.000000 1.600000 0.340000
						CHANNELS 3 Zrotation Yrotation Xrotation
						JOINT Head
						{
							OFFSET 0.000000 1.667000 -0.240000
							CHANNELS 3 Zrotation Yrotation Xrotation
							End Site
							{
								OFFSET 0.000000 0.000000 0.000000
							}
						}
					}
				}
				JOINT LeftShoulder
				{
					OFFSET 0.000000 0.000000 0.000000
					CHANNELS 3 Zrotation Yrotation Xrotation
					JOINT LeftArm
					{
						OFFSET 2.700000 1.550000 -0.730000
						CHANNELS 3 Zrotation Yrotation Xrotation
						JOINT LeftForeArm
						{
							OFFSET 5.450000 0.000000 0.000000
							CHANNELS 3 Zrotation Yrotation Xrotation
							JOINT LeftHand
							{
								OFFSET 3.450000 0.000000 0.000000
								CHANNELS 3 Zrotation Yrotation Xrotation
								JOINT LeftHandIndex1
								{
									OFFSET 0.750000 0.000000 0.000000
									CHANNELS 3 Zrotation Yrotation Xrotation
									End Site
									{
										OFFSET 0.000000 0.000000 0.000000
									}
								}
							}
						}
					}
				}
				JOINT RightShoulder
				{
					OFFSET 0.000000 0.000000 0.000000
					CHANNELS 3 Zrotation Yrotation Xrotation
					JOINT RightArm
					{
						OFFSET -2.700000 1.550000 -0.730000
						CHANNELS 3 Zrotation Yrotation Xrotation
						JOINT RightForeArm
						{
							OFFSET -5.450000 0.000000 0.000000
							CHANNELS 3 Zrotation Yrotation Xrotation
							JOINT RightHand
							{
								OFFSET -3.450000 0.000000 0.000000
								CHANNELS 3 Zrotation Yrotation Xrotation
								JOINT RightHandIndex1
								{
									OFFSET -0.750000 0.000000 0.000000
									CHANNELS 3 Zrotation Yrotation Xrotation
									End Site
									{
										OFFSET 0.000000 0.000000 0.000000
									}
								}
							}
						}
					}
				}
			}
		}
	}
}
MOTION
Frames: 6
Frame Time: 0.016667
0.549160 17.415420 -1.483870 4.191580 -64.125477 -0.857904 -15.353588 11.571998 4.087032 -8.655727 -5.245167 -39.049271 0.993281 3.891033 20.863756 -1.361291 3.326320 3.537701 0.819100 0.351640 0.670350 18.210026 -11.467088 2.565051 -2.820537 2.048568 -5.664746 8.597065 -7.515266 22.781155 -0.642358 -5.448386 2.580423 0.484650 0.453500 0.642720 -4.648687 1.399941 -6.806763 9.861155 13.521758 7.966934 6.689152 10.882535 16.265849 0.757161 -0.801039 -7.045488 -1.329353 3.005061 30.081961 -13.356920 6.561400 -14.642220 -13.572840 -3.338979 4.081494 -13.078765 6.521678 0.160623 -1.156813 -6.164422 -1.393692 -4.092907 2.793415 0.764680 0.499610 0.058510 0.434660 12.304500 8.125738 2.542877 26.649786 24.388638 3.038316 -107.496450 60.259360 -79.756360 1.340068 -0.417006 -0.404260 0.224380 -0.242720 -0.318250 
0.549170 17.348580 -1.486250 3.277777 -63.405983 0.876385 -15.332084 11.394795 4.084587 -8.190267 -5.417649 -39.326729 -0.382045 3.544496 16.909950 -1.448168 2.973907 3.710675 0.812010 0.354500 0.640410 18.272747 -11.432998 2.550019 -2.306703 1.665489 -5.322001 8.836350 -7.451328 21.355623 -0.612841 -5.440865 2.600008 0.520060 0.540240 0.660270 -4.760293 1.534608 -6.747238 9.894996 13.484671 6.260817 6.909818 10.606725 16.003471 0.495538 -0.796274 -6.601882 -1.138461 3.476369 29.096442 -12.794140 6.830830 -12.737340 -12.665143 -2.582765 3.696235 -13.396930 5.271859 0.198793 0.708733 -7.741731 -1.373610 -4.185398 2.823127 0.700380 0.582620 0.001440 0.457660 11.985656 7.147397 2.105415 27.512727 24.731575 3.701682 -103.795218 62.416292 -75.632513 1.145949 -0.001690 -0.423340 0.246730 -0.229230 -0.301660 
0.568110 17.245890 -1.482220 1.932015 -63.182724 3.167606 -15.291376 11.142393 4.094947 -7.191975 -5.478660 -39.819579 -2.777242 3.238753 11.773829 -1.551160 2.735921 3.850233 0.797870 0.340580 0.635890 18.359910 -11.404712 2.548684 -1.796285 1.205188 -4.922768 9.183623 -7.286851 18.992114 -0.586313 -5.362631 2.624302 0.554800 0.637620 0.680340 -5.007339 1.776022 -6.729775 10.965580 13.513789 4.847445 6.018164 10.627884 15.520971 0.282080 -0.980142 -5.843349 -1.217839 4.464352 27.962265 -12.334540 7.414430 -11.808960 -12.467939 -1.769443 3.008963 -12.142419 3.811752 0.385103 3.158274 -10.435659 -1.432354 -4.285590 2.844744 0.655680 0.665580 -0.050630 0.459880 12.056505 6.155348 1.445015 29.143894 24.978382 3.660913 -98.314193 66.047240 -69.594835 0.762620 0.743473 -0.460900 0.299850 -0.194460 -0.300310 
0.587090 17.141220 -1.469680 0.673916 -62.933966 5.325831 -15.252964 10.882429 4.137073 -6.665913 -5.630043 -40.897490 -3.901750 2.962518 8.768200 -1.607973 2.625826 3.912247 0.860060 0.428440 0.661900 18.448492 -11.357565 2.552808 -1.411737 0.770928 -4.520847 9.667087 -7.072004 16.415137 -0.575003 -5.297273 2.659519 0.642010 0.671850 0.681190 -5.221939 2.010075 -6.734163 12.036985 13.401443 3.795452 4.944163 10.677414 14.327680 0.081955 -1.317609 -4.764352 -1.538143 4.797658 26.575277 -11.984850 7.309490 -11.376570 -12.496951 -0.901844 2.250020 -11.464696 2.034400 0.418233 6.238210 -13.860118 -1.596763 -4.312377 2.917819 0.606210 0.715590 -0.076080 0.493020 12.182054 5.525388 0.199859 31.443140 24.960368 1.002206 -86.128396 72.917781 -59.012583 0.157967 1.374502 -0.468730 0.325000 -0.229880 -0.292660 
0.604150 17.046920 -1.470820 0.258495 -62.926923 6.308409 -15.232107 10.702229 4.209964 -6.442674 -5.834612 -42.398955 -4.104371 3.008233 8.916679 -1.628437 2.662793 3.889430 0.875080 0.473870 0.631900 18.494316 -11.326527 2.585583 -1.489936 0.583363 -4.265305 10.376389 -6.946976 14.288927 -0.573812 -5.255671 2.672806 0.683740 0.705140 0.689080 -5.352234 2.189593 -6.793840 12.719688 13.248732 3.963238 3.906794 10.955909 12.822096 -0.136816 -2.018403 -3.867513 -2.448328 5.231670 25.418174 -11.494480 6.951410 -11.751600 -12.959037 -0.247956 1.428834 -12.078108 0.139408 0.049539 11.276900 -19.727496 -2.311111 -4.331247 2.988087 0.581180 0.738780 -0.087920 0.507080 12.750185 5.682637 -0.528071 32.979785 24.686287 -2.276687 -60.655787 79.020940 -43.091909 0.359889 0.002370 -0.465740 0.352310 -0.213240 -0.273080 
0.602510 16.985940 -1.470500 0.279482 -63.399433 6.687885 -15.222082 10.599672 4.266342 -6.314605 -5.964416 -44.099852 -3.156752 3.385049 12.475390 -1.603262 2.890647 3.803052 0.900460 0.507110 0.625460 18.507924 -11.340368 2.620135 -2.146454 0.839435 -4.352967 11.518077 -7.086441 13.715567 -0.572482 -5.355327 2.645745 0.718690 0.741750 0.703200 -5.403066 2.392142 -6.821331 12.558387 13.547896 4.161740 3.377501 11.576458 11.620017 -0.230358 -2.078967 -3.337309 -2.237892 5.345398 23.976704 -11.254100 6.939800 -10.927460 -14.172067 0.743204 0.550798 -13.080498 -0.524590 -0.535621 18.277252 -26.254219 -3.892992 -4.356154 3.078017 0.544410 0.776990 -0.112400 0.539350 14.021798 4.934993 -0.300347 34.517594 24.680195 -1.227830 -37.745798 77.204535 -26.796229 0.748166 -1.273929 -0.465750 0.351190 -0.231390 -0.258510 
